<?xml version="1.0" encoding="UTF-8" standalone="no"?>
<!DOCTYPE svg PUBLIC "-//W3C//DTD SVG 1.1//EN"
 "http://www.w3.org/Graphics/SVG/1.1/DTD/svg11.dtd">
<!-- Generated by graphviz version 2.43.0 (0)
 -->
<!-- Title: G Pages: 1 -->
<svg width="127pt" height="186pt"
 viewBox="0.00 0.00 127.00 186.00" xmlns="http://www.w3.org/2000/svg" xmlns:xlink="http://www.w3.org/1999/xlink">
<g id="graph0" class="graph" transform="scale(1 1) rotate(0) translate(4 182)">
<title>G</title>
<polygon fill="white" stroke="transparent" points="-4,4 -4,-182 123,-182 123,4 -4,4"/>
<g id="clust1" class="cluster">
<title>cluster_Global</title>
<path fill="none" stroke="gray" d="M20,-8C20,-8 99,-8 99,-8 105,-8 111,-14 111,-20 111,-20 111,-158 111,-158 111,-164 105,-170 99,-170 99,-170 20,-170 20,-170 14,-170 8,-164 8,-158 8,-158 8,-20 8,-20 8,-14 14,-8 20,-8"/>
<text text-anchor="middle" x="59.5" y="-157.2" font-family="Times,serif" font-size="11.00" fill="gray">Global</text>
</g>
<g id="clust2" class="cluster">
<title>cluster_\BotGuard</title>
<path fill="none" stroke="gray" d="M28,-16C28,-16 91,-16 91,-16 97,-16 103,-22 103,-28 103,-28 103,-130 103,-130 103,-136 97,-142 91,-142 91,-142 28,-142 28,-142 22,-142 16,-136 16,-130 16,-130 16,-28 16,-28 16,-22 22,-16 28,-16"/>
<text text-anchor="middle" x="59.5" y="-129.2" font-family="Times,serif" font-size="11.00" fill="gray">BotGuard</text>
</g>
<!-- \\BotGuard\\Profile -->
<g id="node1" class="node">
<title>\\BotGuard\\Profile</title>
<polygon fill="none" stroke="black" points="91.5,-114 27.5,-114 27.5,-78 91.5,-78 91.5,-114"/>
<text text-anchor="middle" x="59.5" y="-93.2" font-family="Courier,monospace" font-size="11.00">Profile</text>
</g>
<!-- \\BotGuard\\BotGuard -->
<g id="node2" class="node">
<title>\\BotGuard\\BotGuard</title>
<polygon fill="none" stroke="black" points="95,-60 24,-60 24,-24 95,-24 95,-60"/>
<text text-anchor="middle" x="59.5" y="-39.2" font-family="Courier,monospace" font-size="11.00">BotGuard</text>
</g>
</g>
</svg>
